ply
format ascii 1.0
comment Created by Blender 2.72 (sub 0) - www.blender.org, source file: 'Barrel.blend'
element vertex 548
property float x
property float y
property float z
property float nx
property float ny
property float nz
property float s
property float t
element face 414
property list uchar uint vertex_indices
end_header
7.659141 2.332933 0.336476 0.911344 0.285165 -0.296793 0.631655 0.341209
7.785052 2.375805 0.981855 0.948790 0.297922 -0.104801 0.631946 0.315623
7.828468 2.237750 0.982463 0.990539 -0.099002 -0.094821 0.637099 0.315634
7.702591 2.194891 0.337261 0.956175 -0.110721 -0.271035 0.636808 0.341212
6.094543 1.822579 -1.640959 0.445875 0.133335 -0.885067 0.633346 0.438673
6.618131 1.992259 -1.278645 0.601642 0.183813 -0.777306 0.632517 0.416982
6.661869 1.854310 -1.277414 0.671926 -0.203711 -0.711997 0.637670 0.416965
6.138426 1.684677 -1.639627 0.528977 -0.250069 -0.810938 0.638499 0.438649
3.655792 1.037628 -1.875527 -0.279580 -0.100162 -0.954863 0.646222 0.315646
4.270345 1.234720 -2.008517 -0.096774 -0.041536 -0.994415 0.646657 0.291542
4.314731 1.096981 -2.007084 0.030915 -0.410565 -0.911283 0.651811 0.291523
3.700349 0.899943 -1.874130 -0.136845 -0.464370 -0.874966 0.651376 0.315621
1.771476 0.437895 -0.229821 -0.840175 -0.278573 -0.465285 0.647364 0.417000
2.116997 0.546945 -0.780211 -0.737358 -0.246132 -0.629017 0.646657 0.392903
2.161978 0.409396 -0.779117 -0.556993 -0.598346 -0.575915 0.651811 0.392856
1.816553 0.300376 -0.228878 -0.651326 -0.628132 -0.425642 0.652517 0.416946
3.110003 0.885051 4.309559 -0.441969 -0.145543 0.885128 0.662552 0.420227
2.586415 0.715371 3.947246 -0.597736 -0.196020 0.777337 0.661723 0.398536
2.631267 0.577775 3.947034 -0.428846 -0.552355 0.714805 0.666877 0.398519
3.154710 0.747408 4.309247 -0.285867 -0.506027 0.813746 0.667706 0.420203
5.548752 1.670001 4.544125 0.283517 0.087954 0.954894 0.653468 0.348836
4.934201 1.472909 4.677115 0.100681 0.029298 0.994476 0.653615 0.322749
4.978404 1.335104 4.676702 0.212165 -0.345531 0.914090 0.658769 0.322789
5.592786 1.532142 4.543748 0.379955 -0.291726 0.877773 0.658622 0.348868
7.433066 2.269734 2.898417 0.844081 0.266366 0.465316 0.655708 0.438676
7.087546 2.160683 3.448808 0.741295 0.233924 0.629048 0.654757 0.420223
7.131155 2.022688 3.448734 0.800104 -0.157750 0.578722 0.659910 0.420236
7.476580 2.131708 2.898496 0.894436 -0.127964 0.428449 0.660861 0.438684
1.545402 0.374695 2.332127 -0.907407 -0.297372 0.296854 0.660861 0.322762
1.419490 0.331824 1.686747 -0.944884 -0.310129 0.104862 0.661152 0.297177
1.464664 0.194334 1.687160 -0.747429 -0.657094 0.097629 0.666306 0.297188
1.590542 0.237193 2.332361 -0.713065 -0.645375 0.273812 0.666015 0.322766
7.788652 2.379402 1.640773 0.949858 0.298990 0.091189 0.632517 0.291522
7.832067 2.241346 1.641199 0.991516 -0.098025 0.085055 0.637670 0.291539
7.064249 2.137403 -0.815917 0.734367 0.226997 -0.639637 0.631946 0.392881
7.107864 1.999415 -0.814814 0.793725 -0.164098 -0.585681 0.637099 0.392870
4.897653 1.436389 -2.013045 0.089816 0.018433 -0.995758 0.647364 0.269846
4.941866 1.298594 -2.011610 0.202185 -0.355510 -0.912534 0.652517 0.269833
2.558025 0.687003 -1.249342 -0.606159 -0.204474 -0.768578 0.646222 0.367320
2.602885 0.549415 -1.248118 -0.436598 -0.560106 -0.704001 0.651376 0.367280
1.415890 0.328227 1.027824 -0.945952 -0.311197 -0.091128 0.661723 0.273076
1.461066 0.190738 1.028419 -0.748436 -0.658071 -0.082278 0.666877 0.273093
2.140296 0.570226 3.484519 -0.730430 -0.239204 0.639668 0.661152 0.374435
2.185271 0.432670 3.484435 -0.550645 -0.591998 0.588458 0.666306 0.374424
4.306893 1.271240 4.681643 -0.085879 -0.030671 0.995819 0.654050 0.297166
4.351270 1.133491 4.681229 0.040895 -0.400586 0.915311 0.659204 0.297213
6.646519 2.020626 3.917939 0.610096 0.192236 0.768609 0.654050 0.398527
6.690249 1.882669 3.917735 0.679678 -0.195990 0.706809 0.659204 0.398546
7.415755 2.252435 -0.270558 0.838923 0.261208 -0.477401 0.631655 0.367295
7.459273 2.114415 -0.269604 0.889706 -0.132694 -0.436750 0.636808 0.367292
5.513609 1.634884 -1.888936 0.273080 0.077486 -0.958861 0.648315 0.251393
5.557652 1.497035 -1.887535 0.370373 -0.301309 -0.878628 0.653468 0.251385
3.077613 0.852687 -1.619185 -0.451582 -0.155187 -0.878597 0.646075 0.341233
3.122329 0.715053 -1.617859 -0.294717 -0.514878 -0.804987 0.651229 0.341201
1.534741 0.364043 0.380678 -0.910581 -0.300546 -0.283670 0.662552 0.251385
1.579884 0.226544 0.381451 -0.715964 -0.648274 -0.258950 0.667706 0.251409
7.669801 2.343586 2.287919 0.914518 0.288308 0.283700 0.633346 0.269831
7.713248 2.205540 2.288166 0.959075 -0.107791 0.261757 0.638499 0.269855
1.788789 0.455194 2.939160 -0.835017 -0.273415 0.477432 0.660861 0.348849
1.833861 0.317670 2.939227 -0.646626 -0.623402 0.439558 0.666015 0.348846
3.690937 1.072745 4.557535 -0.269143 -0.089724 0.958892 0.654757 0.273070
3.735484 0.935050 4.557155 -0.127262 -0.454787 0.881436 0.659910 0.273123
6.126931 1.854942 4.287782 0.455519 0.142949 0.878658 0.653615 0.374423
6.170805 1.717032 4.287476 0.537828 -0.241218 0.807794 0.658769 0.374448
5.513609 1.634884 -1.888936 0.273080 0.077486 -0.958861 0.634400 0.457119
5.557652 1.497035 -1.887535 0.370373 -0.301309 -0.878628 0.639554 0.457090
1.534741 0.364043 0.380678 -0.910581 -0.300546 -0.283670 0.648315 0.438684
1.579884 0.226544 0.381451 -0.715964 -0.648274 -0.258950 0.653468 0.438625
7.433066 2.269734 2.898417 0.844081 0.266366 0.465316 0.634401 0.251385
7.476580 2.131708 2.898496 0.894436 -0.127964 0.428449 0.639554 0.251414
3.110003 0.885051 4.309559 -0.441969 -0.145543 0.885128 0.655708 0.251385
3.154710 0.747408 4.309247 -0.285867 -0.506027 0.813746 0.660861 0.251444
7.666247 1.952011 1.008750 0.783532 -0.618824 -0.055727 0.645546 0.318429
7.549482 1.912254 0.410250 0.762566 -0.625935 -0.163182 0.645276 0.342156
6.138426 1.684677 -1.639627 0.528977 -0.250069 -0.810938 0.421856 0.468178
6.661869 1.854310 -1.277414 0.671926 -0.203711 -0.711997 0.408934 0.446494
6.584089 1.596325 -1.087552 0.589251 -0.682669 -0.432081 0.415380 0.441954
6.098534 1.438971 -1.423548 0.502091 -0.710929 -0.492386 0.427367 0.462069
3.700349 0.899943 -1.874130 -0.136845 -0.464370 -0.874966 0.501945 0.516177
4.314731 1.096981 -2.007084 0.030915 -0.410565 -0.911283 0.479132 0.511089
4.406841 0.893813 -1.764407 0.198401 -0.808771 -0.553606 0.480497 0.501874
3.836929 0.711037 -1.641077 0.096072 -0.841609 -0.531449 0.501659 0.506593
1.816553 0.300376 -0.228878 -0.651326 -0.628132 -0.425642 0.588846 0.486619
2.161978 0.409396 -0.779117 -0.556993 -0.598346 -0.575915 0.569507 0.501108
2.409909 0.255997 -0.625323 -0.160070 -0.923276 -0.349101 0.564330 0.492616
2.089486 0.154867 -0.114912 -0.217597 -0.941435 -0.257454 0.582270 0.479176
1.590542 0.237193 2.332361 -0.713065 -0.645375 0.273812 0.631655 0.396821
1.464664 0.194334 1.687160 -0.747429 -0.657094 0.097629 0.627117 0.422399
1.763068 0.056501 1.662440 -0.276223 -0.959105 0.061586 0.617771 0.419604
1.879834 0.096259 2.260940 -0.255257 -0.951964 0.169042 0.621980 0.395877
3.154710 0.747408 4.309247 -0.285867 -0.506027 0.813746 0.605293 0.299384
2.631267 0.577775 3.947034 -0.428846 -0.552355 0.714805 0.618216 0.321068
2.845229 0.412188 3.758741 -0.081942 -0.895260 0.437910 0.609514 0.325607
3.330784 0.569543 4.094736 0.005219 -0.867000 0.498245 0.597527 0.305492
5.592786 1.532142 4.543748 0.379955 -0.291726 0.877773 0.525205 0.251385
4.978404 1.335104 4.676702 0.212165 -0.345531 0.914090 0.548018 0.256473
5.022476 1.114700 4.435594 0.308908 -0.769127 0.559435 0.544397 0.265688
5.592388 1.297476 4.312263 0.411237 -0.736320 0.537309 0.523235 0.260968
7.476580 2.131708 2.898496 0.894436 -0.127964 0.428449 0.438304 0.280942
7.131155 2.022688 3.448734 0.800104 -0.157750 0.578722 0.457643 0.266453
7.019407 1.752516 3.296508 0.667409 -0.654622 0.354930 0.460564 0.274946
7.339829 1.853645 2.786097 0.724937 -0.636464 0.263314 0.442624 0.288386
7.669585 1.955347 1.619806 0.784143 -0.618213 0.053926 0.646075 0.296079
6.997802 1.730927 -0.658436 0.663533 -0.658498 -0.355052 0.645546 0.390075
6.584089 1.596325 -1.087552 0.589251 -0.682669 -0.432081 0.646075 0.412426
4.941866 1.298594 -2.011610 0.202185 -0.355510 -0.912534 0.457643 0.501108
4.988583 1.080833 -1.768606 0.302835 -0.775201 -0.554338 0.460564 0.492616
2.602885 0.549415 -1.248118 -0.436598 -0.560106 -0.704001 0.548017 0.511089
2.818902 0.385881 -1.060377 -0.086673 -0.899960 -0.427198 0.544397 0.501874
6.690249 1.882669 3.917735 0.679678 -0.195990 0.706809 0.479132 0.256473
6.610415 1.622632 3.731562 0.593982 -0.677938 0.433058 0.480498 0.265688
1.461066 0.190738 1.028419 -0.748436 -0.658071 -0.082278 0.618216 0.446494
1.759729 0.053166 1.051380 -0.276803 -0.959716 -0.048097 0.609514 0.441954
2.185271 0.432670 3.484435 -0.550645 -0.591998 0.588458 0.627117 0.345163
2.431515 0.277586 3.329625 -0.156194 -0.919401 0.360881 0.617771 0.347958
4.351270 1.133491 4.681229 0.040895 -0.400586 0.915311 0.569507 0.266453
4.440735 0.927680 4.439793 0.204474 -0.802698 0.560198 0.564330 0.274946
7.323775 1.837603 -0.152690 0.722037 -0.639363 -0.264260 0.645276 0.366348
5.557652 1.497035 -1.887535 0.370373 -0.301309 -0.878628 0.438303 0.486619
5.559797 1.264910 -1.653512 0.405377 -0.742149 -0.533677 0.442624 0.479176
3.122329 0.715053 -1.617859 -0.294717 -0.514878 -0.804987 0.525205 0.516177
3.300747 0.539530 -1.403355 -0.000153 -0.872372 -0.488784 0.523235 0.506594
1.579884 0.226544 0.381451 -0.715964 -0.648274 -0.258950 0.605293 0.468178
1.869948 0.086380 0.451241 -0.257027 -0.953734 -0.155828 0.597527 0.462069
3.735484 0.935050 4.557155 -0.127262 -0.454787 0.881436 0.588846 0.280942
3.869521 0.743603 4.324699 0.101932 -0.835749 0.539537 0.582270 0.288386
6.170805 1.717032 4.287476 0.537828 -0.241218 0.807794 0.501945 0.251385
6.128569 1.468983 4.074541 0.507492 -0.705527 0.494613 0.501659 0.260968
7.832067 2.241346 1.641199 0.991516 -0.098025 0.085055 0.408934 0.321068
7.713248 2.205540 2.288166 0.959075 -0.107791 0.261757 0.421856 0.299384
7.559368 1.922133 2.219944 0.764336 -0.624165 0.161657 0.427367 0.305492
7.669585 1.955347 1.619806 0.784143 -0.618213 0.053926 0.415380 0.325607
1.833861 0.317670 2.939227 -0.646626 -0.623402 0.439558 0.631655 0.370741
2.105541 0.170910 2.823880 -0.214728 -0.938566 0.270089 0.621980 0.371685
7.549482 1.912254 0.410250 0.762566 -0.625935 -0.163182 0.402914 0.371685
7.666247 1.952011 1.008750 0.783532 -0.618824 -0.055727 0.407124 0.347958
7.353000 1.663708 1.050125 0.621143 -0.782952 -0.033753 0.419347 0.352423
7.250792 1.628907 0.526236 0.607898 -0.787469 -0.101657 0.415663 0.373193
6.405746 1.352363 -0.784846 0.498367 -0.823298 -0.271584 0.426575 0.434702
5.980722 1.214625 -1.078956 0.443281 -0.841151 -0.309702 0.437067 0.452310
4.499921 0.737428 -1.377322 0.251350 -0.903012 -0.348369 0.483574 0.487152
4.001055 0.577437 -1.269367 0.186712 -0.923734 -0.334391 0.502098 0.491283
2.751931 0.179123 -0.380239 0.024812 -0.975372 -0.219153 0.556956 0.479048
2.471453 0.090601 0.066542 -0.011505 -0.986816 -0.161229 0.572660 0.467284
2.185727 0.004498 1.622325 -0.048524 -0.997986 0.040376 0.603735 0.415138
2.287937 0.039299 2.146214 -0.035279 -0.993469 0.108249 0.607419 0.394369
3.132983 0.315844 3.457295 0.074190 -0.957640 0.278176 0.596507 0.332859
3.558008 0.453582 3.751404 0.129276 -0.939787 0.316294 0.586014 0.315252
5.038809 0.930779 4.049769 0.321207 -0.877926 0.354961 0.539508 0.280410
5.537674 1.090769 3.941813 0.385846 -0.857204 0.340983 0.520984 0.276278
6.786797 1.489082 3.052685 0.547746 -0.805567 0.225745 0.466126 0.288513
7.067274 1.577605 2.605903 0.584094 -0.794122 0.167852 0.450422 0.300278
7.355922 1.666628 1.585005 0.621509 -0.782556 0.035524 0.426575 0.332859
6.997802 1.730927 -0.658436 0.663533 -0.658498 -0.355052 0.407124 0.419604
6.767885 1.470185 -0.409225 0.545305 -0.808039 -0.222907 0.419347 0.415138
5.009140 0.901133 -1.380998 0.317362 -0.881771 -0.348857 0.466126 0.479048
3.109938 0.292816 -0.761059 0.071200 -0.960631 -0.268502 0.539508 0.487152
2.182805 0.001578 1.087441 -0.048921 -0.998383 -0.028932 0.596507 0.434702
2.770844 0.198022 3.081674 0.027253 -0.972900 0.229499 0.603735 0.352424
4.529589 0.767073 4.053445 0.255196 -0.899167 0.355449 0.556956 0.288513
6.428791 1.375390 3.433504 0.501358 -0.820307 0.275094 0.483574 0.280410
7.323775 1.837603 -0.152690 0.722037 -0.639363 -0.264260 0.402914 0.395877
7.053222 1.563562 0.033474 0.582293 -0.795923 -0.165532 0.415663 0.394369
5.509146 1.062263 -1.280252 0.382153 -0.860897 -0.335795 0.450422 0.467283
3.531715 0.427310 -1.061280 0.125889 -0.943205 -0.307413 0.520984 0.491283
2.279283 0.030651 0.562117 -0.036409 -0.994598 -0.097018 0.586014 0.452310
6.007013 1.240896 3.733726 0.446699 -0.837733 0.314005 0.502098 0.276278
7.259444 1.637554 2.110328 0.608997 -0.786340 0.103610 0.437068 0.315252
2.485507 0.104644 2.638976 -0.009674 -0.985015 0.172124 0.607419 0.373193
4.029584 0.605944 3.952699 0.190405 -0.920042 0.342387 0.572660 0.300278
6.669943 1.200988 1.134435 0.560411 -0.827784 -0.026154 0.445078 0.361575
6.597562 1.176343 0.763433 0.549852 -0.831355 -0.080233 0.442468 0.376283
5.999128 0.980503 -0.165034 0.462630 -0.859920 -0.215583 0.450196 0.419842
5.698139 0.882961 -0.373313 0.418744 -0.874142 -0.245949 0.457626 0.432311
4.649483 0.545026 -0.584607 0.265847 -0.923399 -0.276772 0.490561 0.456985
4.296202 0.431726 -0.508156 0.214331 -0.939940 -0.265633 0.503679 0.459911
3.411612 0.149652 0.121496 0.085360 -0.981048 -0.173833 0.542528 0.451246
3.212986 0.086964 0.437892 0.056429 -0.990204 -0.127689 0.553649 0.442915
3.681461 0.246473 2.839116 0.124729 -0.966948 0.222358 0.570536 0.347720
3.982450 0.344015 3.047394 0.168584 -0.952727 0.252724 0.563106 0.335251
5.031106 0.681951 3.258687 0.321482 -0.903439 0.283517 0.530171 0.310577
5.384387 0.795251 3.182236 0.372997 -0.886929 0.272378 0.517053 0.307651
6.268976 1.077324 2.552584 0.501968 -0.845790 0.180578 0.478204 0.316315
6.467601 1.140012 2.236187 0.530931 -0.836665 0.134465 0.467084 0.324647
3.010644 0.025988 1.539648 0.026917 -0.999084 0.032899 0.575655 0.405987
3.083026 0.050633 1.910650 0.037477 -0.995483 0.087008 0.578264 0.391279
6.672012 1.203056 1.513220 0.560717 -0.827479 0.029054 0.450196 0.347720
6.255583 1.063941 0.100969 0.500015 -0.847743 -0.176824 0.445078 0.405987
5.010096 0.660957 -0.587209 0.318430 -0.906491 -0.277139 0.478204 0.451246
3.665141 0.230166 -0.148188 0.122349 -0.969298 -0.213141 0.530171 0.456985
3.008575 0.023920 1.160860 0.026612 -0.999390 -0.022279 0.570536 0.419842
3.425006 0.163036 2.573113 0.087313 -0.979095 0.183569 0.575655 0.361575
4.670493 0.566020 3.261290 0.268899 -0.920347 0.283914 0.542528 0.316316
6.015447 0.996810 2.822268 0.465011 -0.857540 0.219916 0.490561 0.310577
6.457649 1.130068 0.414474 0.529466 -0.838099 -0.131108 0.442468 0.391279
5.364184 0.775064 -0.515864 0.370037 -0.889859 -0.266732 0.467084 0.442915
3.963830 0.325410 -0.360796 0.165868 -0.955412 -0.244148 0.517053 0.459911
3.076898 0.044509 0.788843 0.036561 -0.996368 -0.076540 0.563106 0.432311
6.603690 1.182467 1.885237 0.550768 -0.830470 0.083285 0.457626 0.335251
3.222939 0.096908 2.259609 0.057863 -0.988739 0.137883 0.578264 0.376283
4.316405 0.451913 3.189946 0.217292 -0.936979 0.273507 0.553649 0.324647
5.716758 0.901566 3.034876 0.421461 -0.871426 0.250893 0.503679 0.307651
6.121333 0.825249 1.202295 0.403729 -0.914823 -0.007477 0.465766 0.368939
6.072956 0.808777 0.954330 0.399792 -0.916166 -0.027619 0.464022 0.378769
5.672983 0.677884 0.333774 0.367290 -0.926817 -0.078036 0.469187 0.407883
5.471812 0.612690 0.194567 0.350963 -0.932096 -0.089358 0.474153 0.416217
4.770925 0.386825 0.053346 0.294015 -0.950438 -0.100833 0.496166 0.432708
4.534804 0.311099 0.104443 0.274819 -0.956603 -0.096652 0.504933 0.434663
3.943573 0.122571 0.525281 0.226814 -0.971923 -0.062471 0.530899 0.428872
3.810819 0.080672 0.736750 0.216010 -0.975311 -0.045289 0.538331 0.423304
5.025989 0.478342 2.622075 0.314737 -0.943022 0.107822 0.522640 0.334854
5.262110 0.554067 2.570977 0.333903 -0.936857 0.103671 0.513872 0.332898
5.853340 0.742596 2.150139 0.381939 -0.921537 0.069491 0.487907 0.338689
5.986094 0.784494 1.938670 0.392743 -0.918149 0.052309 0.480474 0.344258
3.675580 0.039918 1.473127 0.205023 -0.978637 0.014496 0.553039 0.398623
3.723958 0.056390 1.721092 0.208960 -0.977294 0.034639 0.554783 0.388792
4.123932 0.187283 2.341647 0.241462 -0.966643 0.085055 0.549619 0.359679
4.325102 0.252477 2.480854 0.257790 -0.961364 0.096347 0.544652 0.351345
6.122716 0.826631 1.455463 0.403821 -0.914731 0.013062 0.469187 0.359679
5.844388 0.733651 0.511562 0.381207 -0.922269 -0.063601 0.465766 0.398623
5.011947 0.464310 0.051606 0.313578 -0.944151 -0.100955 0.487907 0.428872
4.113024 0.176384 0.345033 0.240577 -0.967559 -0.077120 0.522640 0.432708
3.952526 0.131516 2.163860 0.227515 -0.971191 0.070589 0.553039 0.368939
4.784967 0.400857 2.623815 0.295144 -0.949309 0.107974 0.530899 0.338689
5.683890 0.688783 2.330387 0.368175 -0.925932 0.084140 0.496166 0.334854
3.674197 0.038536 1.219957 0.204932 -0.978729 -0.006043 0.549619 0.407883
5.979443 0.777848 0.721098 0.392193 -0.918668 -0.046571 0.464022 0.388792
5.248608 0.540575 0.099291 0.332804 -0.937956 -0.097079 0.480474 0.423304
4.312658 0.240042 0.202933 0.256783 -0.962371 -0.088656 0.513872 0.434664
3.719862 0.052297 0.971313 0.208625 -0.977630 -0.026246 0.544652 0.416217
3.817471 0.087319 1.954324 0.216559 -0.974792 0.053591 0.554783 0.378769
4.548307 0.324592 2.576130 0.275918 -0.955504 0.104099 0.538331 0.344258
5.484256 0.625125 2.472486 0.351970 -0.931089 0.095676 0.504933 0.332898
6.077052 0.812870 1.704106 0.400128 -0.915830 0.033265 0.474153 0.351345
5.439754 0.681408 1.275097 0.400616 -0.916196 -0.007111 0.489669 0.376946
5.417476 0.673822 1.160905 0.396802 -0.917478 -0.026612 0.488866 0.381473
5.233280 0.613543 0.875127 0.365368 -0.927793 -0.075411 0.491245 0.394880
5.140637 0.583520 0.811019 0.349559 -0.932920 -0.086337 0.493532 0.398718
4.817865 0.479505 0.745984 0.294443 -0.950652 -0.097446 0.503669 0.406313
4.709127 0.444632 0.769515 0.275887 -0.956603 -0.093448 0.507706 0.407213
4.436854 0.357811 0.963319 0.229408 -0.971435 -0.060335 0.519664 0.404546
4.375718 0.338516 1.060705 0.218970 -0.974731 -0.043733 0.523087 0.401982
5.316338 0.643344 1.711598 0.379559 -0.922697 0.067354 0.499866 0.363015
5.377474 0.662640 1.614212 0.389996 -0.919401 0.050752 0.496443 0.365580
4.313437 0.319748 1.399820 0.208350 -0.977935 0.014130 0.529860 0.390616
4.335716 0.327333 1.514013 0.212134 -0.976653 0.033631 0.530664 0.386089
4.519912 0.387612 1.799791 0.243599 -0.966338 0.082430 0.528285 0.372681
4.612556 0.417635 1.863898 0.259407 -0.961211 0.093356 0.525998 0.368844
4.935327 0.521650 1.928933 0.314493 -0.943480 0.104465 0.515861 0.361249
5.044065 0.556524 1.905402 0.333079 -0.937529 0.100436 0.511823 0.360348
5.440391 0.682044 1.391686 0.400739 -0.916074 0.012757 0.491245 0.372681
5.312216 0.639225 0.957001 0.378857 -0.923399 -0.061434 0.489669 0.390616
4.928860 0.515188 0.745183 0.313395 -0.944578 -0.097598 0.499866 0.404546
4.514889 0.382593 0.880312 0.242744 -0.967193 -0.074526 0.515861 0.406313
4.824332 0.485967 1.929734 0.295572 -0.949553 0.104587 0.519664 0.363015
5.238303 0.618563 1.794605 0.366222 -0.926939 0.081545 0.503669 0.361249
4.312801 0.319111 1.283231 0.208228 -0.978057 -0.005737 0.528285 0.394880
4.440976 0.361930 1.717916 0.230110 -0.970733 0.068453 0.529860 0.376946
5.374411 0.659579 1.053497 0.389477 -0.919919 -0.044954 0.488866 0.386089
5.037847 0.550310 0.767143 0.332011 -0.938566 -0.093844 0.496443 0.401982
4.606824 0.411909 0.814872 0.258431 -0.962188 -0.085696 0.511823 0.407213
4.333830 0.325449 1.168726 0.211829 -0.976959 -0.025269 0.525998 0.398718
4.378781 0.341577 1.621421 0.219489 -0.974212 0.051973 0.530664 0.381473
4.715345 0.450846 1.907775 0.276955 -0.955565 0.100864 0.523087 0.365580
5.146368 0.589247 1.860045 0.350536 -0.931913 0.092715 0.507707 0.360348
5.419362 0.675707 1.506191 0.397137 -0.917173 0.032289 0.493532 0.368844
5.109022 0.432664 1.316799 -0.367473 -0.927396 0.069521 0.502265 0.381464
5.101470 0.430093 1.278093 -0.343608 -0.919279 0.191870 0.501993 0.382999
5.039037 0.409661 1.181228 -0.146245 -0.854701 0.498032 0.502799 0.387543
5.007635 0.399485 1.159498 -0.046999 -0.822535 0.566729 0.503574 0.388844
4.898230 0.364228 1.137455 0.298807 -0.711081 0.636402 0.507011 0.391418
4.861373 0.352408 1.145430 0.415296 -0.673727 0.611194 0.508379 0.391723
4.769085 0.322980 1.211121 0.707022 -0.580706 0.403546 0.512432 0.390819
4.748363 0.316440 1.244130 0.772515 -0.560045 0.299203 0.513592 0.389950
4.727253 0.310078 1.359075 0.839259 -0.539933 -0.064089 0.515888 0.386098
4.734804 0.312649 1.397781 0.815363 -0.548051 -0.186438 0.516160 0.384563
4.797238 0.333081 1.494646 0.618030 -0.612629 -0.492599 0.515354 0.380019
4.828640 0.343257 1.516376 0.518754 -0.644795 -0.561296 0.514579 0.378718
4.938045 0.378514 1.538419 0.172948 -0.756249 -0.630970 0.511143 0.376144
4.974902 0.390334 1.530443 0.056429 -0.793603 -0.605762 0.509774 0.375838
5.067189 0.419762 1.464753 -0.235237 -0.886624 -0.398114 0.505721 0.376742
5.087912 0.426302 1.431744 -0.300729 -0.907315 -0.293771 0.504561 0.377612
5.109238 0.432880 1.356318 -0.368145 -0.928098 -0.055361 0.502799 0.380019
5.065792 0.418366 1.208980 -0.230811 -0.882229 0.410321 0.502265 0.386098
4.935853 0.376323 1.137183 0.179876 -0.749321 0.637257 0.505721 0.390819
4.795536 0.331380 1.182985 0.623402 -0.607257 0.492508 0.511143 0.391418
5.040739 0.411362 1.492888 -0.151646 -0.860073 -0.487075 0.507011 0.376144
4.727037 0.309862 1.319556 0.839930 -0.539232 0.060793 0.515354 0.387543
4.770483 0.324376 1.466895 0.702597 -0.585131 -0.404889 0.515888 0.381464
4.900422 0.366419 1.538691 0.291879 -0.718009 -0.631825 0.512432 0.376742
5.086874 0.425265 1.241687 -0.297464 -0.904019 0.306925 0.501993 0.384563
4.972794 0.388228 1.144626 0.063112 -0.786950 0.613758 0.504561 0.389950
4.826697 0.341316 1.160804 0.524918 -0.638661 0.562609 0.509774 0.391723
4.734165 0.312010 1.280744 0.817408 -0.546037 0.183477 0.514579 0.388844
4.863481 0.354514 1.531248 0.408643 -0.680380 -0.608295 0.513592 0.377612
5.009577 0.401426 1.515069 -0.053133 -0.828669 -0.557176 0.508379 0.375838
5.102109 0.430732 1.395129 -0.345622 -0.921293 -0.178045 0.503574 0.378718
4.749401 0.317477 1.434187 0.769219 -0.563311 -0.301523 0.516160 0.382999
5.065792 0.418366 1.208980 -0.230811 -0.882229 0.410321 0.634129 0.457138
5.086874 0.425265 1.241687 -0.297464 -0.904019 0.306925 0.635512 0.457119
5.080564 0.482978 1.235152 -0.204169 0.977050 -0.060366 0.635824 0.461279
5.058095 0.475625 1.200292 -0.216620 0.972991 -0.079714 0.635054 0.461290
5.185046 0.242431 1.222030 0.860714 0.182318 -0.475265 0.635770 0.466626
5.159502 0.234072 1.182399 0.756554 0.148228 -0.636860 0.634895 0.466638
4.958976 0.443504 1.131703 -0.271584 0.955168 -0.117740 0.506058 0.387215
4.919603 0.430815 1.123770 -0.293405 0.948119 -0.122135 0.506704 0.387699
4.795536 0.331380 1.182985 0.623402 -0.607257 0.492508 0.634339 0.472021
4.826697 0.341316 1.160804 0.524918 -0.638661 0.562609 0.635749 0.472011
4.803264 0.393504 1.148946 -0.357921 0.927458 -0.108158 0.635460 0.476173
4.770051 0.382914 1.172587 -0.376354 0.921567 -0.095065 0.634675 0.476179
4.704642 0.362270 1.276780 -0.412610 0.910123 -0.037294 0.511635 0.386599
4.697044 0.359980 1.318146 -0.416822 0.908841 -0.014344 0.512066 0.385875
4.770483 0.324376 1.466895 0.702597 -0.585131 -0.404889 0.636629 0.514169
4.749401 0.317477 1.434187 0.769219 -0.563311 -0.301523 0.635247 0.514189
4.720881 0.368096 1.440321 -0.403607 0.913358 0.053377 0.634934 0.510028
4.743350 0.375449 1.475181 -0.391156 0.917417 0.072695 0.635704 0.510017
4.900422 0.366419 1.538691 0.291879 -0.718009 -0.631825 0.638304 0.486928
4.863481 0.354514 1.531248 0.408643 -0.680380 -0.608295 0.639606 0.486975
4.842469 0.407571 1.543770 -0.336192 0.935240 0.110721 0.638080 0.491099
4.881841 0.420259 1.551703 -0.314341 0.942289 0.115146 0.637356 0.491073
5.040739 0.411362 1.492888 -0.151646 -0.860073 -0.487075 0.632827 0.486928
5.009577 0.401426 1.515069 -0.053133 -0.828669 -0.557176 0.634130 0.486899
4.998180 0.457570 1.526527 -0.249825 0.962981 0.101169 0.635031 0.491057
5.031394 0.468161 1.502886 -0.231422 0.968841 0.088046 0.634306 0.491073
5.109238 0.432880 1.356318 -0.368145 -0.928098 -0.055361 0.639606 0.457176
5.102109 0.430732 1.395129 -0.345622 -0.921293 -0.178045 0.640778 0.457231
5.096803 0.488805 1.398693 -0.195166 0.980285 0.030274 0.638756 0.461342
5.104400 0.491094 1.357327 -0.190924 0.981567 0.007355 0.638104 0.461311
5.101470 0.430093 1.278093 -0.343608 -0.919279 0.191870 0.636921 0.457119
5.096122 0.488124 1.273954 -0.195532 0.979919 -0.038850 0.636609 0.461279
4.996110 0.455501 1.147554 -0.250984 0.961821 -0.108951 0.505508 0.386599
4.861373 0.352408 1.145430 0.415296 -0.673727 0.611194 0.637132 0.472021
4.840222 0.405326 1.132560 -0.337443 0.933988 -0.117252 0.636230 0.476179
4.719774 0.366990 1.237756 -0.404218 0.912748 -0.058931 0.511085 0.387215
4.734804 0.312649 1.397781 0.815363 -0.548051 -0.186438 0.633837 0.514189
4.705323 0.362951 1.401519 -0.412244 0.910489 0.031861 0.634149 0.510028
4.805335 0.395573 1.527919 -0.356761 0.928587 0.101932 0.511635 0.380962
4.842469 0.407571 1.543770 -0.336192 0.935240 0.110721 0.511085 0.380346
4.974902 0.390334 1.530443 0.056429 -0.793603 -0.605762 0.635512 0.486889
4.961223 0.445748 1.542913 -0.270333 0.956420 0.110263 0.635801 0.491052
5.081671 0.484084 1.437717 -0.203528 0.977660 0.051943 0.506058 0.380346
5.096803 0.488805 1.398693 -0.195166 0.980285 0.030274 0.505508 0.380962
5.109022 0.432664 1.316799 -0.367473 -0.927396 0.069521 0.638304 0.457138
5.104170 0.490864 1.315208 -0.191076 0.981414 -0.015992 0.637379 0.461290
5.007635 0.399485 1.159498 -0.046999 -0.822535 0.566729 0.631655 0.457231
5.039037 0.409661 1.181228 -0.146245 -0.854701 0.498032 0.632827 0.457176
5.029579 0.466347 1.170713 -0.232429 0.967834 -0.096103 0.634329 0.461311
4.996110 0.455501 1.147554 -0.250984 0.961821 -0.108951 0.633677 0.461342
4.898230 0.364228 1.137455 0.298807 -0.711081 0.636402 0.638434 0.472050
4.879505 0.417925 1.124059 -0.315653 0.940977 -0.121952 0.636955 0.476195
4.748363 0.316440 1.244130 0.772515 -0.560045 0.299203 0.631655 0.472097
4.769085 0.322980 1.211121 0.707022 -0.580706 0.403546 0.632957 0.472050
4.741860 0.373961 1.202574 -0.391980 0.916593 -0.078433 0.633905 0.476195
4.719774 0.366990 1.237756 -0.404218 0.912748 -0.058931 0.633180 0.476221
5.059585 0.477113 1.472899 -0.215796 0.973815 0.071444 0.506704 0.379862
4.727253 0.310078 1.359075 0.839259 -0.539933 -0.064089 0.632454 0.514169
4.697275 0.360210 1.360265 -0.416700 0.908994 0.008972 0.633380 0.510017
4.771866 0.384727 1.504760 -0.375347 0.922575 0.089114 0.512066 0.381686
4.938045 0.378514 1.538419 0.172948 -0.756249 -0.630970 0.636922 0.486899
4.921940 0.433150 1.551414 -0.292123 0.949431 0.114963 0.636586 0.491057
4.935853 0.376323 1.137183 0.179876 -0.749321 0.637257 0.639606 0.472097
4.919603 0.430815 1.123770 -0.293405 0.948119 -0.122135 0.637607 0.476221
5.067189 0.419762 1.464753 -0.235237 -0.886624 -0.398114 0.631655 0.486975
5.059585 0.477113 1.472899 -0.215796 0.973815 0.071444 0.633654 0.491099
4.697275 0.360210 1.360265 -0.416700 0.908994 0.008972 0.512364 0.385071
4.743350 0.375449 1.475181 -0.391156 0.917417 0.072695 0.512364 0.382491
5.192562 0.102295 1.241928 0.877499 -0.246956 -0.411084 0.635845 0.469481
5.171271 0.095327 1.208895 0.787072 -0.276528 -0.551378 0.635115 0.469491
4.958976 0.443504 1.131703 -0.271584 0.955168 -0.117740 0.638162 0.476256
5.046816 0.197553 1.104422 0.297037 -0.000641 -0.954833 0.638616 0.481614
5.002054 0.183129 1.095403 0.114505 -0.059481 -0.991607 0.637985 0.481574
4.869791 0.140711 1.124025 -0.424818 -0.232459 -0.874905 0.635544 0.481519
4.832032 0.128670 1.150902 -0.578784 -0.281533 -0.765313 0.634651 0.481526
4.697044 0.359980 1.318146 -0.416822 0.908841 -0.014344 0.632655 0.509996
4.704642 0.362270 1.276780 -0.412610 0.910123 -0.037294 0.632002 0.509966
4.757669 0.105201 1.269356 -0.882015 -0.377239 -0.282266 0.631655 0.504611
4.749032 0.102598 1.316384 -0.917234 -0.387860 -0.090487 0.632396 0.504646
4.914361 0.156702 1.572890 -0.243049 -0.167241 0.955473 0.638309 0.496452
4.959123 0.171127 1.581909 -0.060518 -0.108402 0.992248 0.637485 0.496422
5.091386 0.213545 1.553287 0.478805 0.064516 0.875515 0.634842 0.496404
5.129145 0.225585 1.526410 0.632771 0.113620 0.765923 0.634018 0.496422
5.203507 0.249055 1.407956 0.936003 0.209326 0.282907 0.639104 0.466697
5.212144 0.251658 1.360928 0.971221 0.219947 0.091128 0.638362 0.466662
4.776131 0.111825 1.455282 -0.806726 -0.350230 0.475875 0.634988 0.504682
4.801675 0.120184 1.494914 -0.702567 -0.316141 0.637501 0.635863 0.504670
5.202733 0.248281 1.266144 0.932859 0.206183 -0.295358 0.636663 0.466626
4.958976 0.443504 1.131703 -0.271584 0.955168 -0.117740 0.633122 0.461381
5.089033 0.211193 1.122443 0.469192 0.054933 -0.881344 0.633329 0.466697
5.046816 0.197553 1.104422 0.297037 -0.000641 -0.954833 0.632698 0.466741
4.911807 0.154150 1.105396 -0.253456 -0.177648 -0.950865 0.636419 0.481526
4.704642 0.362270 1.276780 -0.412610 0.910123 -0.037294 0.632528 0.476256
4.774873 0.110567 1.224991 -0.811853 -0.355358 -0.463179 0.632952 0.481574
4.757669 0.105201 1.269356 -0.882015 -0.377239 -0.282266 0.632211 0.481614
4.758444 0.105975 1.411169 -0.878872 -0.374096 0.295999 0.634096 0.504682
4.805335 0.395573 1.527919 -0.356761 0.928587 0.101932 0.638733 0.491135
4.872144 0.143062 1.554870 -0.415204 -0.222846 0.881985 0.639050 0.496492
5.049370 0.200105 1.571916 0.307443 0.009735 0.951506 0.635717 0.496397
5.081671 0.484084 1.437717 -0.203528 0.977660 0.051943 0.639311 0.461381
5.186304 0.243688 1.452321 0.865841 0.187445 0.463820 0.639735 0.466741
5.211883 0.251396 1.313044 0.970153 0.218879 -0.104129 0.637538 0.466638
5.127082 0.223524 1.148772 0.624348 0.105228 -0.773980 0.634071 0.466662
4.956467 0.168473 1.095732 -0.071352 -0.119236 -0.990295 0.637243 0.481544
4.799982 0.118492 1.184994 -0.709464 -0.323038 -0.626270 0.633776 0.481544
4.749294 0.102859 1.364269 -0.916166 -0.386792 0.104740 0.633221 0.504670
4.805335 0.395573 1.527919 -0.356761 0.928587 0.101932 0.637081 0.509966
4.771866 0.384727 1.504760 -0.375347 0.922575 0.089114 0.636429 0.509996
4.834095 0.130732 1.528540 -0.570360 -0.273141 0.774621 0.636687 0.504646
4.872144 0.143062 1.554870 -0.415204 -0.222846 0.881985 0.637429 0.504611
5.004710 0.185782 1.581580 0.125340 -0.048647 0.990905 0.636610 0.496404
5.081671 0.484084 1.437717 -0.203528 0.977660 0.051943 0.633099 0.491135
5.161194 0.235763 1.492319 0.763451 0.155126 0.626911 0.633276 0.496452
5.186304 0.243688 1.452321 0.865841 0.187445 0.463820 0.632645 0.496492
5.133639 -0.036435 1.295884 0.419874 -0.905362 -0.063112 0.636050 0.471984
5.124078 -0.039564 1.281049 0.405286 -0.910123 -0.085757 0.635722 0.471989
5.077348 0.064889 1.143902 0.388165 -0.405805 -0.827418 0.638046 0.484454
5.040039 0.052866 1.136384 0.229713 -0.456862 -0.859340 0.637520 0.484420
4.929798 0.017511 1.160241 -0.238472 -0.607044 -0.758019 0.635485 0.484375
4.898326 0.007476 1.182642 -0.372143 -0.649648 -0.662862 0.634742 0.484380
4.836346 -0.012086 1.281374 -0.635395 -0.732749 -0.243538 0.632135 0.501767
4.829147 -0.014256 1.320571 -0.665975 -0.741966 -0.077059 0.632754 0.501796
5.114497 0.078218 1.518029 0.545946 -0.349193 0.761559 0.635046 0.499258
5.145969 0.088254 1.495627 0.679617 -0.306558 0.666402 0.634359 0.499274
5.207950 0.107816 1.396896 0.942839 -0.223487 0.247078 0.638623 0.469540
5.215148 0.109985 1.357698 0.973418 -0.214270 0.080599 0.638005 0.469511
4.851734 -0.006565 1.436342 -0.570055 -0.709281 0.414624 0.634914 0.501827
4.873024 0.000402 1.469375 -0.479629 -0.679708 0.554918 0.635643 0.501817
4.966948 0.030840 1.534368 -0.080721 -0.550432 0.830958 0.637935 0.499298
5.004256 0.042863 1.541885 0.077731 -0.499374 0.862880 0.637248 0.499274
5.207304 0.107171 1.278696 0.940092 -0.226234 -0.254921 0.636588 0.469481
5.112535 0.076258 1.158922 0.537614 -0.357524 -0.763604 0.633810 0.469540
5.077348 0.064889 1.143902 0.388165 -0.405805 -0.827418 0.633284 0.469577
4.964819 0.028713 1.144714 -0.089755 -0.559465 -0.823969 0.636215 0.484380
4.850685 -0.007613 1.244395 -0.574511 -0.713736 -0.400586 0.633326 0.484420
4.836346 -0.012086 1.281374 -0.635395 -0.732749 -0.243538 0.632707 0.484454
4.931760 0.019472 1.519348 -0.230140 -0.598712 0.767144 0.638554 0.499332
5.079476 0.067016 1.533556 0.397198 -0.396771 0.827509 0.635776 0.499253
5.193610 0.103343 1.433874 0.881954 -0.242500 0.404126 0.639149 0.469577
4.836991 -0.011441 1.399574 -0.632649 -0.730003 0.258461 0.634170 0.501827
5.214931 0.109767 1.317787 0.972503 -0.215186 -0.088870 0.637318 0.469491
5.144249 0.086536 1.180867 0.672292 -0.313883 -0.670400 0.634428 0.469511
5.002043 0.040651 1.136659 0.068331 -0.508744 -0.858180 0.636902 0.484395
4.871613 -0.001008 1.211058 -0.485611 -0.685690 -0.542192 0.634013 0.484395
4.829365 -0.014038 1.360483 -0.665059 -0.741020 0.092410 0.633441 0.501817
4.900046 0.009194 1.497402 -0.364849 -0.642354 0.673940 0.636330 0.501796
4.931760 0.019472 1.519348 -0.230140 -0.598712 0.767144 0.636948 0.501767
5.042253 0.055079 1.541611 0.239113 -0.447493 0.861721 0.636519 0.499258
5.172682 0.096737 1.467212 0.793054 -0.270547 0.545732 0.633741 0.499298
5.193610 0.103343 1.433874 0.881954 -0.242500 0.404126 0.633215 0.499332
5.124078 -0.039564 1.281049 0.405286 -0.910123 -0.085757 0.638416 0.506345
5.133639 -0.036435 1.295884 0.419874 -0.905362 -0.063112 0.638351 0.505981
5.070276 -0.013672 1.324731 0.032502 -0.988006 0.150822 0.639574 0.505858
5.067064 -0.014723 1.319749 0.064821 -0.977447 0.200964 0.639596 0.505980
5.040039 0.052866 1.136384 0.229713 -0.456862 -0.859340 0.638562 0.509509
5.077348 0.064889 1.143902 0.388165 -0.405805 -0.827418 0.637950 0.509051
5.081899 -0.053233 1.251862 0.340892 -0.930998 -0.130314 0.638959 0.507258
5.065145 -0.058632 1.248486 0.315317 -0.939238 -0.135472 0.639234 0.507464
5.015637 -0.074509 1.259200 0.239784 -0.963469 -0.119114 0.635295 0.486880
5.001504 -0.079016 1.269260 0.218207 -0.970367 -0.103763 0.634961 0.486882
4.829147 -0.014256 1.320571 -0.665975 -0.741966 -0.077059 0.643643 0.507781
4.836346 -0.012086 1.281374 -0.635395 -0.732749 -0.243538 0.643234 0.508467
4.973670 -0.087801 1.313598 0.175726 -0.983764 -0.036073 0.641333 0.506996
4.970437 -0.088775 1.331201 0.170782 -0.985260 -0.009217 0.641516 0.506687
5.140550 -0.033955 1.365477 0.430433 -0.901578 0.043062 0.637297 0.472011
5.143783 -0.032981 1.347874 0.435347 -0.900082 0.016205 0.637020 0.471998
4.873024 0.000402 1.469375 -0.479629 -0.679708 0.554918 0.643925 0.504574
4.851734 -0.006565 1.436342 -0.570055 -0.709281 0.414624 0.644068 0.505383
4.980580 -0.085322 1.383191 0.186254 -0.979980 0.070101 0.641707 0.505611
4.990141 -0.082193 1.398026 0.200842 -0.975188 0.092746 0.641643 0.505247
5.004256 0.042863 1.541885 0.077731 -0.499374 0.862880 0.642102 0.502083
4.966948 0.030840 1.534368 -0.080721 -0.550432 0.830958 0.642714 0.502542
5.032320 -0.068524 1.427213 0.265236 -0.954344 0.137303 0.641099 0.504335
5.049075 -0.063124 1.430589 0.290811 -0.946104 0.142460 0.640824 0.504129
5.098582 -0.047247 1.419875 0.366375 -0.921873 0.126102 0.635639 0.501761
5.112715 -0.042740 1.409815 0.387951 -0.914975 0.110752 0.635330 0.501767
5.140260 -0.034245 1.312396 0.429975 -0.902005 -0.037935 0.636383 0.471984
5.112535 0.076258 1.158922 0.537614 -0.357524 -0.763604 0.637429 0.508467
5.097701 -0.048127 1.258607 0.365032 -0.923215 -0.120029 0.638726 0.506996
5.031364 -0.069479 1.252227 0.263771 -0.955809 -0.129765 0.635622 0.486882
4.850685 -0.007613 1.244395 -0.574511 -0.713736 -0.400586 0.642714 0.509051
4.980109 -0.085792 1.296992 0.185522 -0.980682 -0.061434 0.641099 0.507258
5.082855 -0.052278 1.426848 0.342357 -0.929533 0.136753 0.635966 0.501758
5.207950 0.107816 1.396896 0.942839 -0.223487 0.247078 0.637429 0.503125
5.193610 0.103343 1.433874 0.881954 -0.242500 0.404126 0.637950 0.502542
5.134110 -0.035964 1.382083 0.420606 -0.904630 0.068422 0.638959 0.504335
5.140550 -0.033955 1.365477 0.430433 -0.901578 0.043062 0.638726 0.504597
4.836991 -0.011441 1.399574 -0.632649 -0.730003 0.258461 0.644068 0.506209
4.973959 -0.087511 1.366680 0.176153 -0.983306 0.044893 0.641707 0.505982
4.931760 0.019472 1.519348 -0.230140 -0.598712 0.767144 0.643234 0.503125
5.016518 -0.073629 1.420468 0.241127 -0.962127 0.126988 0.641333 0.504597
5.143685 -0.033079 1.329951 0.435224 -0.900235 -0.011139 0.636711 0.471989
5.111943 -0.043512 1.268463 0.386761 -0.916166 -0.104984 0.635413 0.471998
5.097701 -0.048127 1.258607 0.365032 -0.923215 -0.120029 0.635136 0.472011
5.048081 -0.064118 1.248609 0.289285 -0.947600 -0.135289 0.635931 0.486889
4.871613 -0.001008 1.211058 -0.485611 -0.685690 -0.542192 0.642102 0.509509
4.989508 -0.082826 1.282021 0.199896 -0.976165 -0.084262 0.640824 0.507464
4.900046 0.009194 1.497402 -0.364849 -0.642354 0.673940 0.643643 0.503812
5.002276 -0.078245 1.410612 0.219367 -0.969176 0.111972 0.641516 0.504905
5.066138 -0.057639 1.430466 0.316843 -0.937712 0.142277 0.636300 0.501761
5.172682 0.096737 1.467212 0.793054 -0.270547 0.545732 0.638562 0.502083
5.124712 -0.038931 1.397054 0.406262 -0.909177 0.091250 0.639234 0.504129
4.829365 -0.014038 1.360483 -0.665059 -0.741020 0.092410 0.643925 0.507018
4.970534 -0.088677 1.349124 0.170934 -0.985107 0.018097 0.641643 0.506345
5.002043 0.040651 1.136659 0.068331 -0.508744 -0.858180 0.639242 0.509825
5.048081 -0.064118 1.248609 0.289285 -0.947600 -0.135289 0.639540 0.507605
4.989508 -0.082826 1.282021 0.199896 -0.976165 -0.084262 0.634633 0.486889
5.049075 -0.063124 1.430589 0.290811 -0.946104 0.142460 0.636628 0.501767
5.145969 0.088254 1.495627 0.679617 -0.306558 0.666402 0.639242 0.501767
5.112715 -0.042740 1.409815 0.387951 -0.914975 0.110752 0.639540 0.503987
5.072597 -0.012839 1.348105 0.009186 -0.996399 -0.084262 0.639700 0.505393
5.073649 -0.012545 1.336173 -0.001373 -0.999359 0.035737 0.639596 0.505612
5.073682 -0.012512 1.342193 -0.001709 -0.999664 -0.024812 0.639638 0.505497
5.072499 -0.012937 1.330277 0.010163 -0.995392 0.095035 0.639574 0.505734
5.062989 -0.016049 1.315521 0.105808 -0.964080 0.243477 0.639638 0.506095
5.052898 -0.019314 1.309946 0.207343 -0.931242 0.299570 0.639778 0.506287
5.058205 -0.017599 1.312211 0.153935 -0.948515 0.276772 0.639700 0.506199
5.041540 -0.022970 1.308853 0.321604 -0.894467 0.310556 0.639973 0.506404
5.047270 -0.021127 1.308812 0.263955 -0.913022 0.310984 0.639871 0.506356
5.030643 -0.026460 1.312410 0.431227 -0.859371 0.274789 0.640193 0.506428
5.035925 -0.024770 1.310068 0.378063 -0.876370 0.298318 0.640082 0.506428
5.021867 -0.029253 1.320075 0.519486 -0.831263 0.197668 0.640404 0.506356
5.025896 -0.027974 1.315789 0.478988 -0.844142 0.240791 0.640302 0.506404
5.016547 -0.030924 1.330681 0.573016 -0.814447 0.090976 0.640575 0.506199
5.018710 -0.030250 1.325103 0.551256 -0.821253 0.147099 0.640497 0.506287
5.015494 -0.031219 1.342613 0.583605 -0.811487 -0.029023 0.640680 0.505980
5.015461 -0.031252 1.336593 0.583941 -0.811151 0.031495 0.640637 0.506095
5.018868 -0.030092 1.354055 0.549669 -0.822840 -0.144139 0.640701 0.505734
5.016644 -0.030827 1.348509 0.572039 -0.815424 -0.088351 0.640701 0.505858
5.026155 -0.027715 1.363265 0.476363 -0.846736 -0.236763 0.640637 0.505497
5.022079 -0.029041 1.359037 0.517350 -0.833399 -0.194250 0.640680 0.505612
5.036246 -0.024450 1.368840 0.374859 -0.879574 -0.292856 0.640497 0.505305
5.030939 -0.026164 1.366575 0.428236 -0.862331 -0.270058 0.640575 0.505393
5.047605 -0.020794 1.369933 0.260598 -0.916379 -0.303842 0.640302 0.505189
5.041873 -0.022636 1.369974 0.318247 -0.897824 -0.304270 0.640404 0.505236
5.058501 -0.017304 1.366376 0.150975 -0.951476 -0.268075 0.640082 0.505164
5.053219 -0.018993 1.368718 0.204108 -0.934477 -0.291635 0.640193 0.505164
5.067277 -0.014510 1.358711 0.062685 -0.979583 -0.190954 0.639871 0.505236
5.063248 -0.015790 1.362997 0.103214 -0.966704 -0.234077 0.639973 0.505189
5.070434 -0.013514 1.353683 0.030915 -0.989593 -0.140385 0.639778 0.505305
5.001504 -0.079016 1.269260 0.218207 -0.970367 -0.103763 0.640519 0.507605
5.015637 -0.074509 1.259200 0.239784 -0.963469 -0.119114 0.640194 0.507678
5.098582 -0.047247 1.419875 0.366375 -0.921873 0.126102 0.639864 0.503915
5.143783 -0.032981 1.347874 0.435347 -0.900082 0.016205 0.638542 0.504905
5.140260 -0.034245 1.312396 0.429975 -0.902005 -0.037935 0.638351 0.505611
5.031364 -0.069479 1.252227 0.263771 -0.955809 -0.129765 0.639864 0.507678
5.082855 -0.052278 1.426848 0.342357 -0.929533 0.136753 0.640194 0.503915
5.143685 -0.033079 1.329951 0.435224 -0.900235 -0.011139 0.638416 0.505247
5.111943 -0.043512 1.268463 0.386761 -0.916166 -0.104984 0.638542 0.506687
5.066138 -0.057639 1.430466 0.316843 -0.937712 0.142277 0.640519 0.503987
4 0 1 2 3
4 4 5 6 7
4 8 9 10 11
4 12 13 14 15
4 16 17 18 19
4 20 21 22 23
4 24 25 26 27
4 28 29 30 31
4 1 32 33 2
4 5 34 35 6
4 9 36 37 10
4 13 38 39 14
4 29 40 41 30
4 17 42 43 18
4 21 44 45 22
4 25 46 47 26
4 34 48 49 35
4 36 50 51 37
4 38 52 53 39
4 40 54 55 41
4 32 56 57 33
4 42 58 59 43
4 44 60 61 45
4 46 62 63 47
4 48 0 3 49
4 64 4 7 65
4 52 8 11 53
4 66 12 15 67
4 62 20 23 63
4 56 68 69 57
4 58 28 31 59
4 60 70 71 61
4 3 2 72 73
4 74 75 76 77
4 78 79 80 81
4 82 83 84 85
4 86 87 88 89
4 90 91 92 93
4 94 95 96 97
4 98 99 100 101
4 2 33 102 72
4 6 35 103 104
4 79 105 106 80
4 83 107 108 84
4 99 109 110 100
4 87 111 112 88
4 91 113 114 92
4 95 115 116 96
4 35 49 117 103
4 105 118 119 106
4 107 120 121 108
4 111 122 123 112
4 115 124 125 116
4 109 126 127 110
4 128 129 130 131
4 113 132 133 114
4 49 3 73 117
4 118 74 77 119
4 120 78 81 121
4 122 82 85 123
4 132 86 89 133
4 124 90 93 125
4 126 94 97 127
4 129 98 101 130
4 134 135 136 137
4 77 76 138 139
4 81 80 140 141
4 85 84 142 143
4 89 88 144 145
4 93 92 146 147
4 97 96 148 149
4 101 100 150 151
4 135 131 152 136
4 76 153 154 138
4 80 106 155 140
4 84 108 156 142
4 88 112 157 144
4 92 114 158 146
4 96 116 159 148
4 100 110 160 150
4 153 161 162 154
4 106 119 163 155
4 108 121 164 156
4 112 123 165 157
4 110 127 166 160
4 131 130 167 152
4 114 133 168 158
4 116 125 169 159
4 161 134 137 162
4 119 77 139 163
4 121 81 141 164
4 123 85 143 165
4 125 93 147 169
4 127 97 149 166
4 130 101 151 167
4 133 89 145 168
4 137 136 170 171
4 139 138 172 173
4 141 140 174 175
4 143 142 176 177
4 147 146 178 179
4 149 148 180 181
4 151 150 182 183
4 145 144 184 185
4 136 152 186 170
4 138 154 187 172
4 140 155 188 174
4 142 156 189 176
4 144 157 190 184
4 146 158 191 178
4 148 159 192 180
4 150 160 193 182
4 154 162 194 187
4 155 163 195 188
4 156 164 196 189
4 157 165 197 190
4 152 167 198 186
4 158 168 199 191
4 159 169 200 192
4 160 166 201 193
4 162 137 171 194
4 163 139 173 195
4 164 141 175 196
4 165 143 177 197
4 166 149 181 201
4 167 151 183 198
4 168 145 185 199
4 169 147 179 200
4 171 170 202 203
4 173 172 204 205
4 175 174 206 207
4 177 176 208 209
4 181 180 210 211
4 183 182 212 213
4 185 184 214 215
4 179 178 216 217
4 170 186 218 202
4 172 187 219 204
4 174 188 220 206
4 176 189 221 208
4 178 191 222 216
4 180 192 223 210
4 182 193 224 212
4 184 190 225 214
4 187 194 226 219
4 188 195 227 220
4 189 196 228 221
4 190 197 229 225
4 191 199 230 222
4 192 200 231 223
4 193 201 232 224
4 186 198 233 218
4 194 171 203 226
4 195 173 205 227
4 196 175 207 228
4 197 177 209 229
4 198 183 213 233
4 199 185 215 230
4 200 179 217 231
4 201 181 211 232
4 203 202 234 235
4 205 204 236 237
4 207 206 238 239
4 209 208 240 241
4 213 212 242 243
4 215 214 244 245
4 217 216 246 247
4 211 210 248 249
4 202 218 250 234
4 204 219 251 236
4 206 220 252 238
4 208 221 253 240
4 210 223 254 248
4 212 224 255 242
4 214 225 256 244
4 216 222 257 246
4 219 226 258 251
4 220 227 259 252
4 221 228 260 253
4 225 229 261 256
4 222 230 262 257
4 223 231 263 254
4 224 232 264 255
4 218 233 265 250
4 226 203 235 258
4 227 205 237 259
4 228 207 239 260
4 229 209 241 261
4 230 215 245 262
4 231 217 247 263
4 232 211 249 264
4 233 213 243 265
4 235 234 266 267
4 237 236 268 269
4 239 238 270 271
4 241 240 272 273
4 245 244 274 275
4 247 246 276 277
4 249 248 278 279
4 243 242 280 281
4 234 250 282 266
4 236 251 283 268
4 238 252 284 270
4 240 253 285 272
4 242 255 286 280
4 244 256 287 274
4 246 257 288 276
4 248 254 289 278
4 251 258 290 283
4 252 259 291 284
4 253 260 292 285
4 256 261 293 287
4 254 263 294 289
4 255 264 295 286
4 250 265 296 282
4 257 262 297 288
4 258 235 267 290
4 259 237 269 291
4 260 239 271 292
4 261 241 273 293
4 262 245 275 297
4 263 247 277 294
4 264 249 279 295
4 265 243 281 296
4 298 299 300 301
4 301 300 302 303
4 284 291 304 305
4 306 307 308 309
4 287 293 310 311
4 312 313 314 315
4 316 317 318 319
4 320 321 322 323
4 324 325 326 327
4 299 328 329 300
4 291 269 330 304
4 307 331 332 308
4 293 273 333 310
4 313 334 335 314
4 294 277 336 337
4 321 338 339 322
4 296 281 340 341
4 328 342 343 329
4 344 345 346 347
4 331 348 349 332
4 350 351 352 353
4 281 280 354 340
4 334 355 356 335
4 277 276 357 336
4 338 358 359 339
4 342 324 327 343
4 345 298 301 346
4 348 360 361 349
4 351 306 309 352
4 358 316 319 359
4 362 320 323 363
4 274 287 311 364
4 276 288 365 357
4 303 302 366 367
4 361 368 369 370
4 309 308 371 372
4 373 374 375 376
4 319 318 377 378
4 323 322 379 380
4 327 326 381 382
4 315 314 383 384
4 300 329 385 302
4 386 347 387 388
4 308 332 389 371
4 390 353 391 392
4 314 335 393 383
4 318 394 395 377
4 322 339 396 379
4 326 397 398 381
4 329 343 399 385
4 347 346 400 387
4 332 349 401 389
4 353 352 402 391
4 335 356 403 393
4 404 405 406 407
4 339 359 408 396
4 409 363 410 411
4 343 327 382 399
4 346 301 303 400
4 349 361 370 401
4 352 309 372 402
4 363 323 380 410
4 356 373 376 403
4 405 315 384 406
4 359 319 378 408
4 367 366 412 413
4 370 369 414 415
4 372 371 416 417
4 376 375 418 419
4 380 379 420 421
4 382 381 422 423
4 384 383 424 425
4 378 377 426 427
4 302 385 428 366
4 388 387 429 430
4 371 389 431 416
4 392 391 432 433
4 377 395 434 426
4 379 396 435 420
4 381 398 436 422
4 383 393 437 424
4 385 399 438 428
4 387 400 439 429
4 389 401 440 431
4 391 402 441 432
4 393 403 442 437
4 407 406 443 444
4 396 408 445 435
4 411 410 446 447
4 399 382 423 438
4 400 303 367 439
4 401 370 415 440
4 402 372 417 441
4 403 376 419 442
4 406 384 425 443
4 408 378 427 445
4 410 380 421 446
4 448 449 450 451
4 452 453 454 455
4 417 416 456 457
4 458 459 460 461
4 423 422 462 463
4 464 465 466 467
4 468 469 470 471
4 421 420 472 473
4 366 428 474 412
4 453 475 476 454
4 416 431 477 456
4 459 478 479 460
4 420 435 480 472
4 481 482 483 484
4 465 485 486 466
4 469 487 488 470
4 428 438 489 474
4 429 439 490 491
4 431 440 492 477
4 478 493 494 479
4 487 495 496 488
4 435 445 497 480
4 482 498 499 483
4 485 500 501 486
4 438 423 463 489
4 439 367 413 490
4 502 452 455 503
4 441 417 457 504
4 500 458 461 501
4 495 464 467 496
4 445 427 505 497
4 498 506 507 499
3 508 509 510
3 450 511 509
3 512 451 450
3 513 514 512
3 515 516 513
3 517 518 515
3 519 520 517
3 521 522 519
3 523 524 521
3 525 526 523
3 527 528 525
3 529 530 527
3 531 532 529
3 533 534 531
3 535 536 533
3 508 537 535
3 508 450 509
3 513 512 450
3 517 515 513
3 521 519 517
3 525 523 521
3 529 527 525
3 533 531 529
3 508 535 533
3 508 513 450
3 521 517 513
3 529 525 521
3 508 533 529
3 508 521 513
3 508 529 521
4 455 454 513 516
4 538 539 517 520
4 461 460 521 524
4 467 466 525 528
4 471 470 529 532
4 507 540 533 536
4 541 484 508 510
4 449 542 511 450
4 454 476 514 513
4 539 543 518 517
4 460 479 522 521
4 484 483 537 508
4 466 486 526 525
4 470 488 530 529
4 540 544 534 533
4 542 545 509 511
4 476 546 512 514
4 543 503 515 518
4 479 494 519 522
4 544 547 531 534
4 483 499 535 537
4 486 501 523 526
4 488 496 527 530
4 545 541 510 509
4 546 448 451 512
4 503 455 516 515
4 494 538 520 519
4 496 467 528 527
4 547 471 532 531
4 499 507 536 535
4 501 461 524 523
